{
  "accessors": [
    {
      "bufferView": 1,
      "componentType": 5126,
      "count": 5941,
      "max": [
        0.999998927116394,
        1.0,
        0.5860504508018494
      ],
      "min": [
        -1.000002145767212,
        -0.999994158744812,
        -0.0005850449670106173
      ],
      "type": "VEC3"
    },
    {
      "bufferView": 1,
      "byteOffset": 71292,
      "componentType": 5126,
      "count": 5941,
      "max": [
        0.9420590400695801,
        0.8939385414123535,
        1.0
      ],
      "min": [
        -0.9043093323707581,
        -0.8690750002861023,
        0.29623517394065857
      ],
      "type": "VEC3"
    },
    {
      "bufferView": 0,
      "componentType": 5125,
      "count": 6075,
      "type": "SCALAR"
    },
    {
      "bufferView": 1,
      "byteOffset": 142584,
      "componentType": 5126,
      "count": 2525,
      "max": [
        0.9927076101303101,
        0.9589279890060425,
        0.6309871077537537
      ],
      "min": [
        -0.7805064916610718,
        -0.9842519760131836,
        -0.0
      ],
      "type": "VEC3"
    },
    {
      "bufferView": 1,
      "byteOffset": 172884,
      "componentType": 5126,
      "count": 2525,
      "max": [
        0.8950446248054504,
        0.9818907380104065,
        0.9999997615814209
      ],
      "min": [
        -0.9040979146957397,
        -0.9104922413825989,
        -0.7565413117408752
      ],
      "type": "VEC3"
    },
    {
      "bufferView": 0,
      "byteOffset": 24300,
      "componentType": 5125,
      "count": 2619,
      "type": "SCALAR"
    }
  ],
  "asset": {
    "extras": {
      "author": "chouhanzippy865 (https://sketchfab.com/chouhanzippy865)",
      "license": "CC-BY-4.0 (http://creativecommons.org/licenses/by/4.0/)",
      "source": "https://sketchfab.com/3d-models/low-poly-mountain-5ccbfb9ae7a84ef3a5cbf96a52cd22cc",
      "title": "Low-Poly Mountain"
    },
    "generator": "Sketchfab-15.25.0",
    "version": "2.0"
  },
  "bufferViews": [
    {
      "buffer": 0,
      "byteLength": 34776,
      "name": "floatBufferViews",
      "target": 34963
    },
    {
      "buffer": 0,
      "byteLength": 203184,
      "byteOffset": 34776,
      "byteStride": 12,
      "name": "floatBufferViews",
      "target": 34962
    }
  ],
  "buffers": [
    {
      "byteLength": 237960,
      "uri": "scene.bin"
    }
  ],
  "materials": [
    {
      "doubleSided": true,
      "name": "Mountian",
      "pbrMetallicRoughness": {
        "baseColorFactor": [
          0.0765791,
          0.0379526,
          0.0206669,
          1.0
        ],
        "metallicFactor": 0.0
      }
    },
    {
      "doubleSided": true,
      "name": "Material.001",
      "pbrMetallicRoughness": {
        "baseColorFactor": [
          0.8,
          0.8,
          0.8,
          1.0
        ],
        "metallicFactor": 0.0
      }
    }
  ],
  "meshes": [
    {
      "name": "Landscape_Mountian_0",
      "primitives": [
        {
          "attributes": {
            "NORMAL": 1,
            "POSITION": 0
          },
          "indices": 2,
          "material": 0,
          "mode": 4
        }
      ]
    },
    {
      "name": "Landscape_Material.001_0",
      "primitives": [
        {
          "attributes": {
            "NORMAL": 4,
            "POSITION": 3
          },
          "indices": 5,
          "material": 1,
          "mode": 4
        }
      ]
    }
  ],
  "nodes": [
    {
      "children": [
        1
      ],
      "matrix": [
        1.0,
        0.0,
        0.0,
        0.0,
        0.0,
        2.220446049250313e-16,
        -1.0,
        0.0,
        0.0,
        1.0,
        2.220446049250313e-16,
        0.0,
        0.0,
        0.0,
        0.0,
        1.0
      ],
      "name": "Sketchfab_model"
    },
    {
      "children": [
        2
      ],
      "matrix": [
        0.009999999776482582,
        0.0,
        0.0,
        0.0,
        0.0,
        0.0,
        0.009999999776482582,
        0.0,
        0.0,
        -0.009999999776482582,
        0.0,
        0.0,
        0.0,
        0.0,
        0.0,
        1.0
      ],
      "name": "90e4cb07bcc7456f99bae601b331d1a3.fbx"
    },
    {
      "children": [
        3,
        6
      ],
      "name": "RootNode"
    },
    {
      "children": [
        4,
        5
      ],
      "matrix": [
        100.0,
        0.0,
        0.0,
        0.0,
        0.0,
        -1.629206793918314e-05,
        -99.99999999999868,
        0.0,
        0.0,
        99.99999999999868,
        -1.629206793918314e-05,
        0.0,
        0.0,
        0.0,
        0.0,
        1.0
      ],
      "name": "Landscape"
    },
    {
      "mesh": 0,
      "name": "Landscape_Mountian_0"
    },
    {
      "mesh": 1,
      "name": "Landscape_Material.001_0"
    },
    {
      "children": [
        7
      ],
      "matrix": [
        100.0,
        0.0,
        0.0,
        0.0,
        0.0,
        99.99999999999972,
        -7.5497901264043296e-06,
        0.0,
        0.0,
        7.5497901264043296e-06,
        99.99999999999972,
        0.0,
        0.0,
        0.0,
        0.0,
        1.0
      ],
      "name": "Sun"
    },
    {
      "children": [
        8
      ],
      "matrix": [
        1.0,
        0.0,
        0.0,
        0.0,
        0.0,
        2.220446049250313e-16,
        1.0,
        0.0,
        0.0,
        -1.0,
        2.220446049250313e-16,
        0.0,
        0.0,
        0.0,
        0.0,
        1.0
      ],
      "name": "Object_7"
    },
    {
      "name": "Object_8"
    }
  ],
  "scene": 0,
  "scenes": [
    {
      "name": "Sketchfab_Scene",
      "nodes": [
        0
      ]
    }
  ]
}
